<?xml version="1.0" encoding="UTF-8"?>
<svg width="137px" height="26px" viewBox="0 0 137 26" version="1.1" xmlns="http://www.w3.org/2000/svg" xmlns:xlink="http://www.w3.org/1999/xlink">
    <!-- Generator: Sketch 43.2 (39069) - http://www.bohemiancoding.com/sketch -->
    <title>aam-dark</title>
    <desc>Created with Sketch.</desc>
    <defs></defs>
    <g id="Page-1" stroke="none" stroke-width="1" fill="none" fill-rule="evenodd">
        <g id="aam-dark" fill-rule="nonzero">
            <path d="M34.76,19.44 C34.121684,20.5288589 33.203136,21.4266878 32.1,22.04 L32.3,24.04 L30.7,25.54 L34.8,25.54 L33.96,24.16 C34.8394144,22.7540093 35.1270012,21.0572476 34.76,19.44 Z" id="Shape" fill="#BE3026"></path>
            <path d="M9,6.68 C9.213303,3.72895278 7.24351777,1.06295031 4.36,0.4 L7.68,7.04 L9,6.68 Z" id="Shape" fill="#EF4136"></path>
            <path d="M6.6,7.84 C5.51732305,5.4286657 3.0088865,3.98490318 0.38,4.26 L5.5,8.94 L6.6,7.84 Z" id="Shape" fill="#BE3026"></path>
            <path d="M37,15.06 L35.8,18 C36.9869725,20.669789 38.8060054,23.0105068 41.1,24.82 C41.66,25.26 41.78,25.02 41.78,25.02 C39.5264627,22.059276 37.9000267,18.6703004 37,15.06 Z" id="Shape" fill="#EF4136"></path>
            <polygon id="Shape" fill="#BE3026" points="12.66 22.04 9.84 19.04 9.94 23.74 7.84 25.46 11.6 25.46 11 24.28"></polygon>
            <path d="M36.34,13.6 C35.9052835,12.481214 35.397523,11.3922014 34.82,10.34 C34.3116196,9.44543984 33.757554,8.57762626 33.16,7.74 C32.8851001,9.34515947 31.9954936,10.7800086 30.68,11.74 C31.3832973,10.0028637 31.8540359,8.1804327 32.08,6.32 C30.9187359,5.00922446 29.5034985,3.94779635 27.92,3.2 C28.4190945,5.76004011 27.608986,8.40039366 25.76,10.24 C26.395291,7.73268675 26.5915244,5.13428629 26.34,2.56 C24.1968203,1.91220864 21.9415426,1.72142987 19.72,2 C20.2271028,2.34052878 20.6343881,2.80994239 20.9,3.36 C22.3318874,5.92004941 22.3318874,9.03995059 20.9,11.6 C20.9,11.6 20.7,4.64 18.38,2.18 C16.831315,2.453024 15.3206703,2.90957438 13.88,3.54 C13.5732092,3.66608353 13.27864,3.8200629 13,4 C13.5217108,4.26429729 13.9791196,4.63978205 14.34,5.1 C16.3911539,7.55104906 17.0130202,10.8954764 15.98,13.92 C15.98,13.92 14.56,7.32 11.98,4.76 C11.0015914,5.59944644 10.134558,6.56057651 9.4,7.62 C8.12025632,7.87567127 6.97639804,8.58614225 6.18,9.62 C6.171062,9.73983357 6.171062,9.86016643 6.18,9.98 C6.18,10.2 5.98,10.42 5.88,10.64 C5.4,11.78 4.9,12.9 4.5,14.06 C4.1,15.22 3.88,16.42 3.46,17.6 L3.46,17.6 C3.11945108,18.5514068 2.64101212,19.4476375 2.04,20.26 C1.88,20.92 2.78,21.46 3.22,21.46 C3.66,21.46 8.52,17.32 9.22,16.86 C9.5177495,16.2308412 9.7006262,15.5535202 9.76,14.86 C9.9851571,15.7149704 10.0260604,16.6080273 9.88,17.48 C11.06,18.76 13.76,21.48 13.88,21.48 L14.16,23.64 L12.34,25.48 L16.04,25.48 L15.32,24.54 C17.1425462,22.4931727 19.2751856,20.7452183 21.64,19.36 C24.0854891,18.3127593 26.6743387,17.6385797 29.32,17.36 C29.7123457,17.8909181 29.9914473,18.4967728 30.14,19.14 C30.1997624,21.0593609 29.1805014,22.8507892 27.5,23.78 C26.8319012,24.2675058 26.1225453,24.6957962 25.38,25.06 C25.14,25.18 24.7,25.52 24.42,25.52 L29.64,25.52 L28.74,24.08 C35.84,19.64 36.34,13.6 36.34,13.6 Z M7.92,15.28 L7.4,15.28 C7.4893164,15.4347005 7.4893164,15.6252995 7.4,15.78 C7.2154995,16.027754 6.8904109,16.1252806 6.6,16.02 L6.46,16.02 C6.21770439,15.838757 6.14162728,15.5090895 6.28,15.24 C6.33498338,15.1166809 6.41700902,15.0073134 6.52,14.92 C6.60339234,14.85993 6.6989891,14.81896 6.8,14.8 C7.07479053,14.7449324 7.36024122,14.7948862 7.6,14.94 L8.14,15.4 C8.14,15.4 7.94,15.28 7.92,15.28 L7.92,15.28 Z" id="Shape" fill="#EF4136"></path>
            <path d="M71.84,15.26 C71.8768616,12.3920708 73.0530038,9.65659084 75.1090476,7.65682566 C77.1650913,5.65706049 79.9321522,4.55727177 82.8,4.6 C84.8975512,4.55539467 86.94145,5.26508175 88.56,6.6 L88.56,6.6 L88.56,4.6 L94.04,4.6 L94.04,25.32 L88.56,25.32 L88.56,23.52 C86.9121508,25.1040562 84.682779,25.9364515 82.4,25.82 C79.5641969,25.940107 76.807868,24.8661587 74.8008547,22.8591453 C72.7938413,20.852132 71.719893,18.0958031 71.84,15.26 L71.84,15.26 Z M88.56,15.26 C88.6840718,13.1903789 87.6504038,11.2226042 85.8758888,10.1503069 C84.1013738,9.0780095 81.8786262,9.0780095 80.1041112,10.1503069 C78.3295962,11.2226042 77.2959282,13.1903789 77.42,15.26 C77.3765033,16.7584831 77.9443428,18.2102103 78.9929998,19.2815002 C80.0416569,20.35279 81.4809298,20.9514943 82.98,20.94 C84.4859866,20.9684998 85.9373078,20.375862 86.9928911,19.3013614 C88.0484745,18.2268607 88.6152425,16.7652429 88.56,15.26 L88.56,15.26 Z" id="Shape" fill="#FFFFFF"></path>
            <path d="M46.8,15.26 C46.8368616,12.3920708 48.0130038,9.65659084 50.0690476,7.65682566 C52.1250913,5.65706049 54.8921522,4.55727177 57.76,4.6 C59.8629887,4.55944066 61.9118148,5.26837703 63.54,6.6 L63.54,6.6 L63.54,4.6 L69,4.6 L69,25.32 L63.54,25.32 L63.54,23.52 C61.8821462,25.1010331 59.6481207,25.9324665 57.36,25.82 C54.5241969,25.940107 51.767868,24.8661587 49.7608547,22.8591453 C47.7538413,20.852132 46.679893,18.0958031 46.8,15.26 L46.8,15.26 Z M63.54,15.26 C63.54,12.1782511 61.0417489,9.68 57.96,9.68 C54.8782511,9.68 52.38,12.1782511 52.38,15.26 C52.38,18.3417489 54.8782511,20.84 57.96,20.84 C61.0417489,20.84 63.54,18.3417489 63.54,15.26 L63.54,15.26 Z" id="Shape" fill="#FFFFFF"></path>
            <path d="M125.58,4.56 C122.471822,4.55724367 119.491185,5.79557561 117.3,8 C115.111307,5.67789014 112.029119,4.41003968 108.84,4.52 C106.832921,4.53506859 104.863343,5.06533946 103.12,6.06 L103.12,4.6 L97.58,4.6 L97.58,25.46 L103.16,25.46 L103.16,15.46 C103.104757,13.9547571 103.671525,12.4931393 104.727109,11.4186386 C105.782692,10.344138 107.234013,9.75150021 108.74,9.78 C110.251247,9.7335915 111.713186,10.3205448 112.772766,11.3991138 C113.832346,12.4776828 114.393242,13.9498157 114.32,15.46 L114.32,25.46 L119.9,25.46 L119.9,15.46 C119.775928,13.3903789 120.809596,11.4226042 122.584111,10.3503069 C124.358626,9.2780095 126.581374,9.2780095 128.355889,10.3503069 C130.130404,11.4226042 131.164072,13.3903789 131.04,15.46 L131.04,25.46 L136.62,25.46 L136.62,15.46 C136.749052,12.5067731 135.622498,9.63682646 133.518964,7.55996699 C131.415429,5.48310753 128.53134,4.39327092 125.58,4.56 Z" id="Shape" fill="#FFFFFF"></path>
        </g>
    </g>
</svg>