<?xml version="1.0" encoding="UTF-8"?>
<svg width="508px" height="508px" viewBox="0 0 508 508" version="1.1" xmlns="http://www.w3.org/2000/svg" xmlns:xlink="http://www.w3.org/1999/xlink">
    <!-- Generator: Sketch 43.2 (39069) - http://www.bohemiancoding.com/sketch -->
    <title>Group 3</title>
    <desc>Created with Sketch.</desc>
    <defs></defs>
    <g id="Home-Page" stroke="none" stroke-width="1" fill="none" fill-rule="evenodd">
        <g id="Group-2" transform="translate(-227.000000, -246.000000)">
            <g id="Group-3" transform="translate(227.000000, 246.000000)">
                <circle id="Oval-4" fill="#FFFFFF" opacity="0.00792572464" cx="254" cy="254" r="254"></circle>
                <g id="AAM_logo-Badge-Full-Color" transform="translate(67.000000, 66.000000)" fill-rule="nonzero">
                    <path d="M251.583376,218.033787 C248.591105,223.126192 244.317177,227.34602 239.187069,230.273179 L240.12856,239.138893 L232.282796,246.200081 L251.504919,246.200081 L247.582036,239.766554 C251.673435,233.311292 253.107392,225.522935 251.583376,218.033787 Z" id="Shape" fill="#BE3026"></path>
                    <path d="M130.68015,158.249064 C131.75819,144.402617 122.498925,131.867511 108.947383,128.827448 L124.638911,160.210505 L130.68015,158.249064 Z" id="Shape" fill="#EF4136"></path>
                    <path d="M119.774538,163.662641 C114.629188,152.416006 102.892156,145.695609 90.5882947,146.951164 L114.125587,168.919303 L119.774538,163.662641 Z" id="Shape" fill="#BE3026"></path>
                    <path d="M262.175158,197.556343 L256.526208,211.364888 C262.060257,223.851058 270.573319,234.788726 281.318822,243.21869 C283.986382,245.258589 284.535586,244.081724 284.535586,244.081724 C274.008407,230.247482 266.401123,214.418993 262.175158,197.556343 Z" id="Shape" fill="#EF4136"></path>
                    <polygon id="Shape" fill="#BE3026" points="148.097746 230.194722 134.916862 216.150804 135.387608 238.118944 125.501945 246.200081 143.154915 246.200081 140.33044 240.708046"></polygon>
                    <path d="M258.958395,190.730528 C257.006697,185.328237 254.646133,180.082538 251.897207,175.038999 C249.505156,170.845628 246.886005,166.785945 244.051443,162.878065 C242.946689,170.514952 238.854762,177.400678 232.675084,182.02173 C235.978786,173.906825 238.169317,165.382226 239.187069,156.679911 C233.771212,150.511951 227.14927,145.518793 219.729573,142.008332 C221.921134,154.095476 217.949753,166.480301 209.137792,175.038999 C212.101941,163.279714 213.030699,151.099705 211.883809,139.026942 C201.874895,135.881749 191.323777,134.839993 180.893041,135.967094 C183.246851,137.569977 185.140244,139.760903 186.385076,142.322163 C193.153606,154.299094 193.153606,168.946392 186.385076,180.923323 C186.385076,180.923323 185.443584,148.284943 174.616429,136.830128 C167.349555,138.084123 160.26238,140.218179 153.511324,143.185197 C152.173188,143.783215 150.887257,144.491789 149.666899,145.303553 C152.121559,146.536155 154.266902,148.306063 155.94351,150.481757 C165.587057,161.923538 168.561307,177.568093 163.789275,191.750477 C163.789275,191.750477 157.120375,160.916624 144.64561,148.912605 C140.039578,152.804435 135.999265,157.320079 132.641591,162.328861 C126.68148,163.432001 121.32678,166.667132 117.577724,171.429948 C117.313084,171.948509 117.127945,172.503925 117.02852,173.077558 C117.02852,174.097508 116.087028,175.195915 115.69474,176.215864 C113.419469,181.472526 111.065739,186.729188 109.182756,191.907392 C107.299772,197.085597 106.279823,203.048378 104.318382,208.461955 C104.318382,208.461955 104.318382,208.461955 104.318382,208.854243 C102.727525,213.281065 100.507968,217.455946 97.7279401,221.250551 C96.9433637,224.388856 101.101619,226.821043 103.219975,226.821043 C105.338331,226.821043 128.01259,207.442006 131.464726,205.402107 C132.88395,202.47652 133.735863,199.308468 133.975371,196.065647 C135.041405,200.056157 135.255264,204.226414 134.603032,208.30504 C140.095067,214.346278 152.726747,227.056416 153.197493,227.291789 L154.531273,237.412825 L146.371678,246.200081 L163.710817,246.200081 L160.337138,241.806453 C168.878798,232.23931 178.857794,224.060238 189.91567,217.563041 C201.378968,212.605301 213.515666,209.379424 225.927727,207.991209 C227.761561,210.492327 229.04503,213.353394 229.693694,216.386177 C231.341305,225.487263 224.201659,233.019197 217.375844,238.040486 C214.235112,240.338123 210.901281,242.359423 207.411724,244.081724 C206.313317,244.630928 204.273418,246.200081 202.939638,246.200081 L227.339965,246.200081 L223.18171,239.452724 C256.683123,218.896821 258.958395,190.730528 258.958395,190.730528 Z M125.972691,198.576292 L124.874284,198.576292 L123.462047,198.576292 C123.917814,199.294679 123.917814,200.211635 123.462047,200.930021 C122.645639,202.119845 121.108939,202.577585 119.774538,202.028428 C119.521832,201.899211 119.284891,201.74125 119.068419,201.557682 C118.00086,200.686263 117.647538,199.208734 118.205385,197.948631 C118.508125,197.387158 118.906367,196.882718 119.382249,196.457936 C119.767296,196.140371 120.225907,195.924554 120.716029,195.830275 C121.990263,195.579968 123.311918,195.833051 124.403538,196.536393 C125.291225,197.180002 126.130371,197.88803 126.914183,198.65475 C126.914183,198.65475 126.051149,198.576292 125.972691,198.576292 L125.972691,198.576292 Z" id="Shape" fill="#EF4136"></path>
                    <path d="M40.532319,73.20098 L45.7105234,65.8259617 L75.1321392,86.3034063 L69.9539348,93.6784246 L66.8940868,91.4816106 C67.2935808,93.6075144 67.2935808,95.7892335 66.8940868,97.9151373 C66.4892049,99.8378886 65.6875417,101.654992 64.5403575,103.250257 C61.8842793,107.019137 57.7449624,109.47418 53.1639994,109.997614 C48.2133526,110.713717 43.1823799,109.413578 39.1985391,106.388563 C34.9827132,103.680143 31.9968716,99.4267273 30.8820291,94.5414587 C29.801331,90.0915662 30.7183938,85.3916193 33.3926736,81.6744054 C34.6117501,79.9727841 36.158965,78.5322738 37.9432169,77.4376927 C39.769429,76.3254352 41.7946838,75.5792887 43.9059977,75.2408787 L40.532319,73.20098 Z M41.1599802,85.2049993 C39.5581633,87.3038587 38.9560524,89.9990218 39.5123697,92.5800176 C40.1617409,95.306041 41.8145661,97.6872298 44.1413706,99.2489172 C46.3786284,100.954574 49.1954334,101.715111 51.9871348,101.367274 C54.5942425,101.040652 56.9364117,99.6125001 58.4206614,97.4443914 C60.1218715,95.2100213 60.7269743,92.328579 60.0682719,89.5986272 C59.4101179,86.8345635 57.7277455,84.423163 55.3608134,82.85127 C53.1354988,81.1250859 50.2993308,80.3876822 47.5150492,80.8113713 C44.8535091,81.2697402 42.5288671,82.8769 41.1599802,85.2049993 L41.1599802,85.2049993 Z" id="Shape" fill="#EF4136"></path>
                    <path d="M71.8369182,24.2434114 L78.9765636,18.6729188 L109.575044,57.9017398 L102.435399,63.3937748 L100.160127,60.4123844 C99.8760767,62.5528373 99.2118229,64.6253092 98.1986859,66.5320805 C97.1980082,68.2442052 95.8640699,69.7382161 94.2758038,70.9257084 C90.6793249,73.7963899 86.0040235,74.9437031 81.4872082,74.0640141 C76.5469711,73.3343947 72.1078514,70.6483031 69.1693584,66.6105381 C65.9677967,62.7488753 64.3674175,57.8073534 64.6972728,52.8019931 C64.9649932,48.2511373 67.1985864,44.0416733 70.8169689,41.2687197 C72.4591508,39.9704386 74.3576141,39.0345764 76.3874615,38.5227022 C78.4891708,37.994645 80.6706906,37.8616255 82.8209881,38.130414 L71.8369182,24.2434114 Z M77.4074108,46.8392123 C75.2896661,48.4052634 73.9466508,50.8055461 73.7199016,53.4296542 C73.5150656,59.2066897 77.4829275,64.2987791 83.1348187,65.5121311 C85.7505904,65.9364779 88.4252312,65.2574244 90.5217843,63.6366847 C92.6183375,62.015945 93.9491691,59.5985696 94.1973462,56.9602481 C94.4411822,51.1541311 90.4645235,46.0176136 84.7824292,44.7993136 C82.1128076,44.479124 79.4326202,45.3059903 77.4074108,47.0745852 L77.4074108,46.8392123 Z" id="Shape" fill="#BCBEC0"></path>
                    <polygon id="Shape" fill="#BCBEC0" points="100.866246 21.8112245 109.418129 18.3590882 125.815776 34.5998201 126.286522 11.5332734 134.759947 8.08113713 134.053828 47.3099582 128.640251 49.5067721"></polygon>
                    <path d="M176.420955,1.56915284 L185.443584,0.549203494 L189.209551,36.4043459 L180.26538,37.3458376 L180.26538,33.5798708 C178.876468,35.2471816 177.202961,36.6550521 175.322548,37.7381258 C173.596538,38.6591041 171.701344,39.2196544 169.752055,39.3857363 C165.171343,39.9374665 160.579952,38.4452643 157.198833,35.3059389 C153.425121,32.0698197 151.08425,27.4726879 150.686848,22.5173433 C149.96128,17.5402684 151.199196,12.4760664 154.138985,8.3949677 C156.766241,4.65849642 160.891204,2.25226807 165.436885,1.80452577 C167.519023,1.58639188 169.623697,1.77288197 171.635039,2.35372926 C173.702676,3.02600605 175.620851,4.09165908 177.283989,5.49203494 L176.420955,1.56915284 Z M167.790614,9.8856629 C165.175479,10.1413174 162.786164,11.4781958 161.200173,13.5731721 C159.542212,15.8297468 158.837742,18.647624 159.238731,21.4189363 C159.435043,24.253567 160.729935,26.8996501 162.847783,28.7939546 C164.712483,30.6435968 167.290592,31.5889035 169.908971,31.3830568 C172.57376,31.2206859 175.0235,29.8661235 176.57787,27.6955476 C178.279323,25.458144 179.013971,22.6325773 178.617769,19.8497834 C178.389884,17.0685614 177.096964,14.4827216 175.008718,12.6316804 C173.074533,10.7755174 170.469452,9.784454 167.790614,9.8856629 L167.790614,9.8856629 Z" id="Shape" fill="#BCBEC0"></path>
                    <path d="M204.901079,1.56915284 L213.84525,3.13830568 L213.139132,6.74735722 C215.030122,5.58560163 217.096772,4.73774534 219.258828,4.23671267 C220.993489,3.88589831 222.780828,3.88589831 224.51549,4.23671267 C227.738206,4.89613768 230.563284,6.81719079 232.361254,9.57183233 C234.161733,12.4766321 234.700064,15.9899471 233.851949,19.3005799 L229.615236,42.8378726 L220.82798,41.2687197 L223.573998,25.5771913 C224.222586,22.7734295 224.538594,19.903018 224.51549,17.0253083 C224.497529,15.7375548 223.993008,14.5042823 223.103252,13.5731721 C222.256558,12.6095211 221.082318,11.9944429 219.808031,11.8471039 C218.100658,11.5118804 216.329787,11.8491892 214.8652,12.7885957 C213.269281,13.9281963 212.041932,15.510113 211.334606,17.3391389 C210.547857,19.6361085 209.970155,21.9994362 209.608538,24.4003267 L207.097893,38.6796175 L198.23218,37.032007 L204.901079,1.56915284 Z" id="Shape" fill="#BCBEC0"></path>
                    <path d="M282.966433,35.2274813 L274.41455,35.2274813 C273.929203,33.5342722 273.101383,31.9587426 271.982363,30.5984804 C270.86807,29.3937047 269.537365,28.408983 268.059481,27.6955476 C265.393325,26.2486404 262.264468,25.9103856 259.350683,26.7540559 C256.585459,27.6756658 254.317619,29.6883737 253.074071,32.3245485 C251.814867,34.7480037 251.588508,37.577489 252.44641,40.1703127 C253.519009,42.883292 255.599465,45.0762051 258.252276,46.2900088 C261.43538,48.0770525 265.276583,48.2516527 268.608684,46.7607547 L272.76694,54.6065189 C267.339358,56.8495114 261.239653,56.825921 255.829583,54.5410141 C250.419513,52.2561072 246.149558,47.9001407 243.972985,42.4455843 C242.415522,37.7641164 242.782432,32.6555917 244.992934,28.2447511 C248.021662,21.9963835 254.291739,17.9677835 261.233666,17.8098847 C264.884115,17.7501656 268.493661,18.5852097 271.74699,20.2420716 C274.83252,21.6308919 277.527496,23.7599228 279.592754,26.4402254 C281.488419,29.0118878 282.654051,32.0479513 282.966433,35.2274813 L282.966433,35.2274813 Z" id="Shape" fill="#BCBEC0"></path>
                    <path d="M313.878744,79.0068455 L292.616723,59.3139774 C291.221534,61.26983 290.606061,63.67577 290.890655,66.0613346 C291.267371,68.5527691 292.552989,70.8165744 294.499706,72.4164036 C296.837194,74.7062301 300.017662,75.9273024 303.286962,75.7900822 L306.425268,83.6358464 C303.44277,84.4240571 300.306679,84.4240571 297.324181,83.6358464 C294.362817,82.577015 291.680243,80.860168 289.478417,78.6145573 C285.587319,75.3454382 283.232722,70.6040677 282.979676,65.5282668 C282.72663,60.4524659 284.597978,55.5004178 288.144637,51.8605014 C291.501829,48.051785 296.254805,45.7601713 301.325521,45.5054324 C306.332958,45.1852688 311.240045,47.0111614 314.820236,50.5267215 C318.746286,53.9025513 321.079457,58.768066 321.253762,63.9429783 C321.321491,69.2600364 319.192556,74.3694815 315.369439,78.0653538 L313.878744,79.0068455 Z M312.074218,67.6304874 C313.003882,65.7892277 313.28052,63.6867808 312.858795,61.6677067 C312.399808,59.5407719 311.272654,57.6163626 309.642031,56.1756717 C307.941089,54.5093841 305.731674,53.4599119 303.36542,53.1942813 C301.415024,53.1245845 299.476771,53.5283872 297.71647,54.3711459 L312.074218,67.6304874 Z" id="Shape" fill="#BCBEC0"></path>
                    <path d="M364.405465,94.1491705 L368.956009,101.994935 L325.961221,127.258295 L321.410678,119.412531 L324.627441,117.45109 C322.538036,116.905286 320.568975,115.973973 318.821575,114.705073 C317.24648,113.525997 315.936709,112.029116 314.977151,110.311445 C312.606362,106.362865 312.089993,101.572105 313.564913,97.2090185 C314.95183,92.4134916 318.201197,88.372975 322.587542,85.9895757 C326.818301,83.2747853 331.941304,82.3177408 336.866833,83.3220159 C341.377938,84.2557116 345.250869,87.124549 347.458615,91.1677801 C348.541045,92.9657131 349.235858,94.9699817 349.498513,97.0521032 C349.726666,99.1815055 349.567176,101.334626 349.027768,103.407172 L364.405465,94.1491705 Z M341.260461,96.7382726 C339.99272,94.4067735 337.747187,92.7658074 335.140765,92.2661871 C332.441837,91.6712076 329.617056,92.1796683 327.295001,93.6784246 C324.802712,95.0362154 322.943214,97.3183264 322.116796,100.033494 C321.208021,102.64524 321.52507,105.5275 322.97983,107.879258 C324.277488,110.21464 326.499144,111.895123 329.099527,112.508259 C331.809165,113.005611 334.606881,112.474045 336.945291,111.017564 C339.402934,109.675567 341.234554,107.421266 342.045037,104.740952 C343.107403,101.99986 342.816708,98.9184951 341.260461,96.4244421 L341.260461,96.7382726 Z" id="Shape" fill="#BCBEC0"></path>
                    <path d="M373.89884,178.569593 L374.683417,187.513764 L338.906732,190.887443 L338.043698,181.943272 L341.809665,181.943272 C340.164482,180.553494 338.782567,178.879251 337.729867,177.00044 C336.818448,175.242554 336.258788,173.323719 336.082257,171.35149 C335.66874,166.781432 337.207811,162.249723 340.318969,158.876725 C343.630401,155.138252 348.281445,152.855012 353.26448,152.521656 C358.234424,151.894691 363.2565,153.18528 367.308398,156.130708 C371.025062,158.824237 373.376008,163.010068 373.741925,167.585523 C373.96993,169.646848 373.755956,171.733095 373.114264,173.705219 C372.428048,175.759713 371.333915,177.654431 369.8975,179.275712 L373.89884,178.569593 Z M365.58233,169.782337 C365.425859,167.15323 364.138117,164.720828 362.051736,163.113438 C359.785436,161.472357 356.984597,160.744139 354.205972,161.073539 C351.384885,161.257461 348.743338,162.522031 346.830954,164.604133 C345.096425,166.601548 344.250089,169.219183 344.486924,171.853981 C344.72376,174.48878 346.023344,176.913523 348.086276,178.569593 C352.946498,182.092779 359.667942,181.454242 363.777804,177.078898 C365.24697,174.950701 365.759037,172.305018 365.190042,169.782337 L365.58233,169.782337 Z" id="Shape" fill="#EF4136"></path>
                    <path d="M359.148803,240.472673 L356.559701,232.626909 C358.06629,231.721522 359.374024,230.520543 360.404126,229.096315 C361.265947,227.696079 361.876628,226.1561 362.208651,224.545772 C362.879233,221.604105 362.4022,218.51742 360.874872,215.915431 C357.551786,210.986847 350.910898,209.596085 345.889462,212.777125 C343.514403,214.494937 341.930835,217.096512 341.495834,219.995228 C340.600539,223.501829 341.415043,227.225278 343.692648,230.037806 L337.494494,236.079045 C333.788996,231.38851 332.154907,225.390509 332.969168,219.468616 C333.783428,213.546723 336.975718,208.21235 341.809665,204.695988 C345.920977,201.975489 350.950549,201.014784 355.775125,202.028428 C359.102564,202.693123 362.191077,204.23738 364.719296,206.500514 C367.245266,208.778763 369.091738,211.711395 370.054416,214.973939 C371.051544,218.472544 371.186146,222.160653 370.446704,225.722636 C369.844816,229.004168 368.47354,232.096261 366.445364,234.745265 C364.543519,237.247489 362.031142,239.21957 359.148803,240.472673 L359.148803,240.472673 Z" id="Shape" fill="#BCBEC0"></path>
                    <path d="M336.866833,287.076512 L336.866833,278.446172 C338.549142,278.053255 340.127631,277.304141 341.495834,276.249358 C342.75696,275.14915 343.79563,273.817521 344.555682,272.326476 C346.077336,269.719729 346.500691,266.615126 345.732547,263.696135 C344.945761,260.892725 343.006818,258.554589 340.397427,257.262608 C338.003979,255.933645 335.176758,255.622651 332.551663,256.399574 C329.803641,257.393312 327.551765,259.42 326.275051,262.048524 C324.435674,265.168047 324.145914,268.963905 325.490475,272.326476 L317.644711,276.327815 C315.001035,270.537132 315.382623,263.815304 318.66466,258.361015 C321.001576,253.348192 325.323957,249.537672 330.590222,247.847691 C335.30357,246.393575 340.406721,246.932241 344.712597,249.338386 C347.772712,250.832706 350.314374,253.21039 352.009158,256.164201 C353.798788,259.061475 354.724229,262.40939 354.676718,265.814491 C354.694331,269.463645 353.775894,273.056354 352.009158,276.249358 C350.548265,279.357539 348.337428,282.053682 345.575631,284.095122 C342.980849,285.828309 339.979409,286.855829 336.866833,287.076512 L336.866833,287.076512 Z" id="Shape" fill="#BCBEC0"></path>
                    <path d="M292.067519,316.811959 L312.388049,296.177599 C310.504246,294.682367 308.112503,293.978913 305.719149,294.216158 C303.220098,294.542501 300.915183,295.736614 299.207165,297.589836 C296.900827,299.786948 295.548613,302.80126 295.441198,305.984804 L287.595434,308.887737 C286.952254,305.89144 287.114684,302.778204 288.06618,299.865108 C289.190857,296.879956 290.989835,294.194915 293.322842,292.019344 C296.798282,288.23466 301.679712,286.049368 306.817556,285.978105 C311.820146,285.907831 316.625482,287.926641 320.076898,291.548598 C323.822475,294.986674 326.004174,299.803413 326.118136,304.886397 C326.250323,309.907894 324.255809,314.751715 320.626101,318.224196 C317.132051,322.028628 312.21816,324.215736 307.052929,324.265435 C301.739694,324.151573 296.700078,321.886577 293.087469,317.988823 L292.067519,316.811959 Z M303.443878,315.399721 C305.27777,316.350052 307.378574,316.654116 309.406658,316.262755 C311.565788,315.915774 313.550807,314.868125 315.055609,313.281365 C316.731151,311.599397 317.82995,309.429268 318.193914,307.083211 C318.28915,305.147086 317.94027,303.214829 317.173965,301.434261 L303.443878,315.399721 Z" id="Shape" fill="#BCBEC0"></path>
                    <path d="M271.903905,347.959642 L273.708431,340.113878 C276.022539,340.914101 278.558392,340.77322 280.769619,339.72159 C281.507649,339.335875 282.109972,338.733552 282.495687,337.995522 C282.816661,337.408896 282.816661,336.699165 282.495687,336.112539 C282.24253,335.704556 281.853575,335.398948 281.39728,335.249504 C280.331471,335.083239 279.246326,335.083239 278.180517,335.249504 L274.493008,335.249504 C271.51662,335.667979 268.483934,335.3996 265.627294,334.464928 C263.54621,333.615335 261.807171,332.097126 260.684463,330.149758 C259.062883,327.578419 258.633696,324.431049 259.507598,321.519417 C260.571692,318.178653 262.873524,315.371541 265.941125,313.673653 C270.072399,310.969179 275.278841,310.498541 279.828127,312.418331 L278.258974,320.264095 C276.737502,319.786124 275.145069,319.5738 273.551516,319.636434 C272.212029,319.698763 270.90131,320.046505 269.707091,320.656383 C268.810541,321.188467 268.098605,321.982549 267.667193,322.931655 C267.304509,323.619018 267.304509,324.441105 267.667193,325.128469 C268.373312,326.383791 270.177837,326.854537 273.159228,326.619164 L276.532906,326.619164 C281.503526,325.46582 286.684064,327.377686 289.71379,331.483538 C291.173435,333.830523 291.518206,336.703608 290.655282,339.329302 C289.78825,342.298488 287.787113,344.806955 285.084789,346.312032 C283.12007,347.478092 280.924416,348.201052 278.651263,348.430388 C276.394665,348.765839 274.092061,348.605192 271.903905,347.959642 Z" id="Shape" fill="#BCBEC0"></path>
                    <path d="M236.911797,361.768187 L240.285476,354.628542 C242.387657,355.872179 244.885738,356.265135 247.268206,355.726949 C248.09088,355.505949 248.811668,355.006942 249.308105,354.314711 C249.615096,353.752373 249.615096,353.072525 249.308105,352.510186 C249.129084,352.066811 248.794272,351.704098 248.366613,351.490236 C247.404671,351.051066 246.363877,350.810882 245.306765,350.784118 L241.619256,350.313372 C238.623693,350.087732 235.709518,349.232195 233.067373,347.802727 C228.677482,344.560378 227.282557,338.61534 229.772152,333.758809 C231.549535,330.809945 234.337746,328.607258 237.617916,327.560656 C242.236823,325.797756 247.42675,326.41351 251.504919,329.208266 L248.288155,337.05403 C246.903795,336.266647 245.388905,335.735106 243.81607,335.484877 C242.529538,335.152696 241.179719,335.152696 239.893187,335.484877 C238.896919,335.739699 238.03041,336.354641 237.461001,337.210946 C237.084385,337.922615 237.084385,338.774548 237.461001,339.486217 C237.931746,340.741539 239.579357,341.604573 242.560747,341.996862 L245.934426,341.996862 C252.367953,342.859896 256.369292,345.292083 257.78153,349.842626 C258.738757,352.422585 258.509089,355.293427 257.153869,357.68839 C255.689612,360.409973 253.207239,362.441007 250.249596,363.33734 C248.088297,364.10381 245.781744,364.372013 243.502239,364.121917 C241.150449,363.868478 238.892058,363.06191 236.911797,361.768187 L236.911797,361.768187 Z" id="Shape" fill="#BCBEC0"></path>
                    <path d="M194.936959,375.027529 L185.91433,374.086037 L186.385076,370.00624 C184.793365,371.442411 182.924243,372.537183 180.893041,373.223003 C178.86762,373.868218 176.729508,374.08203 174.616429,373.850664 C172.480682,373.657985 170.441907,372.869658 168.732106,371.575393 C166.969721,370.198444 165.636181,368.347816 164.887682,366.240273 C163.314883,368.111209 161.326769,369.588861 159.081816,370.555443 C156.866915,371.437762 154.462156,371.734979 152.099086,371.418477 C149.746391,371.220553 147.493509,370.379115 145.587102,368.986291 C143.891484,367.694859 142.632001,365.915155 141.97805,363.886544 C141.333261,360.754931 141.333261,357.524782 141.97805,354.393169 L144.174864,333.444979 L153.275951,334.38647 L151.31451,352.588643 C150.755172,355.3919 150.972203,358.294695 151.942171,360.983611 C152.836302,362.534544 154.468103,363.513625 156.257341,363.572713 C157.751564,363.769306 159.268841,363.465851 160.572511,362.709679 C161.875702,361.91309 162.934353,360.773004 163.632359,359.414458 C164.610162,357.068022 165.193379,354.576095 165.358428,352.03944 L167.006038,335.877166 L176.107125,336.818657 L174.224141,354.157796 C173.899687,356.500344 173.899687,358.876436 174.224141,361.218984 C174.41492,362.519208 175.053051,363.712235 176.028667,364.592663 C176.920008,365.45807 178.085421,365.985281 179.323888,366.083358 C180.801273,366.244678 182.290588,365.91372 183.5606,365.141866 C184.903436,364.323773 185.969474,363.121064 186.620449,361.68973 C187.643408,359.33059 188.228301,356.804914 188.346517,354.236254 L190.072585,338.544725 L199.016756,339.486217 L194.936959,375.027529 Z" id="Shape" fill="#EF4136"></path>
                    <path d="M96.5510755,349.685711 L88.7053113,345.684371 L104.789128,313.516738 L112.634892,317.518077 L110.908824,320.891756 C112.963903,320.250223 115.112154,319.958485 117.263893,320.028722 C119.239218,320.188656 121.161269,320.749254 122.912843,321.676332 C127.075647,323.675259 130.146617,327.406344 131.307811,331.875826 C132.733684,336.644053 132.197075,341.784202 129.817116,346.155117 C127.755685,350.745068 123.983299,354.348542 119.303792,356.197695 C115.054167,357.911587 110.267701,357.682295 106.201365,355.570034 C104.347308,354.647964 102.694084,353.368049 101.336992,351.804067 C99.9528162,350.142431 98.9127158,348.222246 98.2771436,346.155117 L96.5510755,349.685711 Z M108.398179,347.331981 C110.807383,348.668309 113.69224,348.841401 116.243944,347.802727 C118.843617,346.763653 120.94841,344.771115 122.128267,342.232235 C123.442435,339.836348 123.779766,337.025258 123.069758,334.38647 C122.378445,331.831336 120.599987,329.70866 118.205385,328.580605 C115.79551,327.261632 112.929749,327.061029 110.35962,328.031401 C107.69265,329.076605 105.548547,331.136072 104.39684,333.758809 C103.084765,336.157604 102.774529,338.97793 103.533806,341.604573 C104.263792,344.120319 106.033795,346.204355 108.398179,347.331981 L108.398179,347.331981 Z" id="Shape" fill="#BCBEC0"></path>
                    <path d="M72.4645794,334.151097 L65.8741374,328.031401 L68.384782,325.285384 C66.1604463,325.294282 63.9533174,324.895403 61.8727977,324.108519 C60.2149332,323.535444 58.692687,322.627438 57.4007121,321.440959 C54.8505941,319.160728 53.3711444,315.917319 53.3209147,312.496788 C53.4227985,309.065427 54.8916307,305.817048 57.4007121,303.474159 L73.641444,286.056563 L80.1534283,292.176259 L69.4047313,303.709532 C67.3705696,305.735815 65.5559894,307.971167 63.991154,310.378432 C63.3538716,311.495472 63.1055064,312.79249 63.2850352,314.065941 C63.5185189,315.324915 64.1845623,316.462739 65.1680186,317.282704 C66.3942497,318.508479 68.0633262,319.187425 69.7970195,319.165688 C71.7749012,319.101872 73.6881082,318.445915 75.2890545,317.282704 C77.1847659,315.765911 78.9437318,314.085704 80.5457165,312.261415 L90.3529217,301.669634 L97.0218213,307.78933 L72.4645794,334.151097 Z" id="Shape" fill="#BCBEC0"></path>
                    <path d="M23.3500954,274.994035 L18.7210946,267.148271 L49.6334055,248.632268 L54.2624064,256.478032 L50.9671854,258.439473 C53.0692588,258.97848 55.0607545,259.881292 56.8515086,261.107033 C58.4136071,262.322794 59.7426715,263.811346 60.7743907,265.500661 C63.1714188,269.437262 63.7165449,274.228634 62.2650859,278.603087 C60.9153904,283.41406 57.6938316,287.483398 53.3209147,289.900987 C49.1285302,292.63814 44.0306552,293.623917 39.1200815,292.647005 C34.5507137,291.755741 30.6130134,288.881507 28.3713845,284.801241 C27.2775278,283.037214 26.5813981,281.055922 26.3314858,278.995375 C26.0650214,276.840745 26.2249728,274.654743 26.8022317,272.561848 L23.3500954,274.994035 Z M34.6479959,279.387663 C35.9535645,281.652409 38.1419624,283.272392 40.6892343,283.859749 C46.3845339,284.784011 51.9174267,281.470902 53.7916605,276.013985 C54.7251224,273.395746 54.3765858,270.491274 52.8501688,268.168221 C51.5336323,265.83152 49.2757735,264.173852 46.6520151,263.617677 C43.9321896,263.094824 41.1157615,263.658109 38.8062509,265.18683 C36.3317351,266.508459 34.4935976,268.770782 33.7065042,271.463441 C32.8410358,274.114903 33.1853416,277.01281 34.6479959,279.387663 L34.6479959,279.387663 Z" id="Shape" fill="#BCBEC0"></path>
                    <path d="M5.14792248,222.976619 L3.02956614,214.26782 L33.0003854,206.892802 C37.4925752,205.301201 42.3951983,205.301201 46.887388,206.892802 C51.7813598,209.636159 55.1599496,214.458591 56.0669322,219.995228 C56.8613073,222.905818 57.1531744,225.930622 56.9299662,228.9394 C56.6472391,231.357884 55.844271,233.686491 54.576237,235.765214 C53.2634981,237.818366 51.4905948,239.537545 49.3980326,240.786503 L47.0443033,231.136213 C47.8471205,230.002376 48.3344717,228.675697 48.4565409,227.291789 C48.7531392,225.631166 48.7531392,223.931123 48.4565409,222.2705 C48.0366784,220.300378 47.1785727,218.450088 45.9458963,216.856923 C45.038175,215.728935 43.8056457,214.907248 42.4153025,214.503193 C40.3281572,214.263832 38.2139359,214.47793 36.2171487,215.130855 C37.9513743,216.16452 39.4698311,217.523139 40.6892343,219.132194 C41.8250039,220.800955 42.6490404,222.661682 43.1214212,224.624229 C44.3039875,229.130021 43.5045888,233.926413 40.9246073,237.805113 C38.2375201,241.846726 34.0652215,244.665847 29.3128762,245.650877 C24.371656,247.0696 19.0641114,246.388418 14.6412972,243.767894 C10.9692911,241.52508 8.34317592,237.910642 7.34473646,233.725316 C6.9636225,231.755991 6.9636225,229.731859 7.34473646,227.762535 C7.7475878,225.546393 8.54479438,223.420508 9.69846572,221.485924 L5.14792248,222.976619 Z M14.7197548,230.273179 C15.2394625,232.868638 16.8364366,235.121512 19.1133828,236.471333 C21.4871013,237.853087 24.3259076,238.193744 26.959147,237.412825 C29.6459726,236.865774 31.9958655,235.251992 33.4711313,232.940739 C34.9242792,230.59631 35.3229966,227.748329 34.5695382,225.094975 C34.0205273,222.532498 32.428331,220.314796 30.1759103,218.975279 C27.7695279,217.687495 24.9589156,217.378327 22.3301461,218.112245 C19.6852986,218.659692 17.3689788,220.241569 15.8966194,222.505873 C14.263147,224.741763 13.716241,227.591431 14.4059242,230.273179 L14.7197548,230.273179 Z" id="Shape" fill="#BCBEC0"></path>
                    <path d="M23.5070107,159.425929 L21.9378579,188.376799 C24.3346052,188.16144 26.5685197,187.072407 28.2144692,185.316951 C29.905873,183.442852 30.8544994,181.015484 30.8820291,178.491136 C31.088534,175.245645 29.9865282,172.052654 27.822181,169.625422 L31.8235208,162.250404 C34.2394204,164.103504 36.1542005,166.53069 37.3940134,169.311592 C38.6196436,172.344389 39.1038001,175.625895 38.8062509,178.883424 C38.7075557,184.01517 36.5268761,188.886299 32.7650125,192.378138 C29.0232921,195.689477 24.0935624,197.33272 19.1133828,196.928682 C14.0070441,196.817838 9.16479507,194.63741 5.69712597,190.887443 C2.29183701,187.224682 0.583483699,182.29893 0.98966745,177.314271 C1.07280117,172.146085 3.32152608,167.250127 7.18782117,163.819557 C11.2366484,160.391645 16.5013432,158.749966 21.7809426,159.269013 L23.5070107,159.425929 Z M15.6612465,168.056269 C13.6452072,168.517918 11.8465303,169.652468 10.5614998,171.273033 C9.19218919,172.994547 8.42100469,175.115305 8.3646858,177.314271 C8.19867193,179.66587 8.80471437,182.007397 10.0907539,183.983171 C11.2922309,185.506045 12.8205793,186.739449 14.5628395,187.592222 L15.6612465,168.056269 Z" id="Shape" fill="#BCBEC0"></path>
                    <path d="M6.32478711,144.75435 L8.44314344,136.908585 L12.8367714,138.163908 C11.4466585,137.02748 10.38945,135.536545 9.77692336,133.848737 C9.30798098,132.287894 9.30798098,130.623665 9.77692336,129.062821 C10.1593642,127.84137 10.8017423,126.717209 11.6599068,125.7676 L18.407264,130.631974 C17.7480218,131.270663 17.2388638,132.047799 16.9165688,132.907246 C16.6055095,134.456293 17.2168109,136.045677 18.4857216,136.987043 C21.2306855,139.082807 24.4281444,140.506886 27.822181,141.145298 L29.4697915,141.616044 L43.5137094,145.538926 L41.0815225,154.169267 L6.32478711,144.75435 Z" id="Shape" fill="#BCBEC0"></path>
                </g>
            </g>
        </g>
    </g>
</svg>