<?xml version="1.0" encoding="UTF-8"?>
<svg width="62px" height="62px" viewBox="0 0 62 62" version="1.1" xmlns="http://www.w3.org/2000/svg" xmlns:xlink="http://www.w3.org/1999/xlink">
    <!-- Generator: Sketch 43.2 (39069) - http://www.bohemiancoding.com/sketch -->
    <title>4313118_antique_characters_machine_typewriter_writing_icon</title>
    <desc>Created with Sketch.</desc>
    <defs></defs>
    <g id="Page-1" stroke="none" stroke-width="1" fill="none" fill-rule="evenodd">
        <g id="4313118_antique_characters_machine_typewriter_writing_icon" fill-rule="nonzero" fill="#CF4139">
            <path d="M57.816,32 L62,32 L62,26 L57.816,26 C57.514,25.153 56.847,24.486 56,24.184 L56,19 C56,17.346 54.654,16 53,16 L52,16 L52,6.586 L45.414,0 L14,0 L14,16 L13,16 C11.346,16 10,17.346 10,19 L10,24.184 C9.153,24.486 8.486,25.153 8.184,26 L4,26 C2.346,26 1,27.346 1,29 L1,37.369 C0.198,38.278 -0.15,39.494 0.062,40.705 C0.346,42.328 1.673,43.657 3.291,43.938 C3.525,43.979 3.76,43.999 3.993,43.999 C4.934,43.999 5.847,43.673 6.573,43.061 C7.48,42.3 8,41.184 8,40 C8,39.034 7.641,38.099 7,37.37 L7,32 L8.184,32 C8.486,32.847 9.153,33.514 10,33.816 L10,44.586 L7.465,47.121 C6.521,48.065 6,49.321 6,50.657 L6,57 C6,59.757 8.243,62 11,62 L55,62 C57.757,62 60,59.757 60,57 L60,50.657 C60,49.321 59.479,48.065 58.535,47.121 L56,44.586 L56,33.816 C56.847,33.514 57.514,32.847 57.816,32 Z M54,44 L12,44 L12,34 L18.406,34 C21.131,38.947 26.257,42 31.944,42 L34.055,42 C39.742,42 44.868,38.947 47.593,34 L54,34 L54,44 Z M48,26 L48,32 L18,32 L18,26 L48,26 Z M46,3.414 L48.586,6 L46,6 L46,3.414 Z M20.739,34 L24,34 L24,37.42 C22.734,36.495 21.629,35.342 20.739,34 Z M26,34 L28,34 L28,39.412 C27.31,39.203 26.642,38.938 26,38.623 L26,34 Z M30,34 L32,34 L32,40 L31.944,40 C31.286,40 30.637,39.952 30,39.86 L30,34 L30,34 Z M34,34 L36,34 L36,39.86 C35.363,39.952 34.714,40 34.056,40 L34,40 L34,34 Z M38,34 L40,34 L40,38.623 C39.358,38.938 38.69,39.203 38,39.412 L38,34 Z M42,34 L45.261,34 C44.37,35.342 43.265,36.495 42,37.42 L42,34 Z M56,31 C56,31.552 55.552,32 55,32 L50,32 L50,26 L55,26 C55.552,26 56,26.448 56,27 L56,31 Z M60,30 L58,30 L58,28 L60,28 L60,30 Z M53,18 C53.552,18 54,18.448 54,19 L54,24 L52,24 L52,18 L53,18 Z M44,2 L44,8 L50,8 L50,24 L16,24 L16,2 L44,2 Z M13,18 L14,18 L14,24 L12,24 L12,19 C12,18.448 12.448,18 13,18 Z M10,27 C10,26.448 10.448,26 11,26 L16,26 L16,32 L11,32 C10.448,32 10,31.552 10,31 L10,27 Z M5,30 L5,38.223 L5.33,38.521 C5.762,38.91 6,39.436 6,40 C6,40.592 5.74,41.149 5.286,41.531 C4.827,41.917 4.24,42.073 3.633,41.968 C2.844,41.831 2.171,41.156 2.032,40.361 C1.91,39.667 2.142,38.997 2.669,38.522 L3,38.224 L3,29 C3,28.448 3.448,28 4,28 L8,28 L8,30 L5,30 Z M57.121,48.535 C57.688,49.102 58,49.855 58,50.657 L58,57 C58,58.654 56.654,60 55,60 L11,60 C9.346,60 8,58.654 8,57 L8,50.657 C8,49.855 8.312,49.101 8.879,48.535 L11.414,46 L54.586,46 L57.121,48.535 Z" id="Shape"></path>
            <rect id="Rectangle-path" x="30" y="56" width="2" height="2"></rect>
            <rect id="Rectangle-path" x="28" y="52" width="2" height="2"></rect>
            <rect id="Rectangle-path" x="34" y="56" width="2" height="2"></rect>
            <rect id="Rectangle-path" x="32" y="52" width="2" height="2"></rect>
            <rect id="Rectangle-path" x="38" y="56" width="2" height="2"></rect>
            <rect id="Rectangle-path" x="36" y="52" width="2" height="2"></rect>
            <rect id="Rectangle-path" x="42" y="56" width="2" height="2"></rect>
            <rect id="Rectangle-path" x="40" y="52" width="2" height="2"></rect>
            <rect id="Rectangle-path" x="46" y="56" width="2" height="2"></rect>
            <rect id="Rectangle-path" x="44" y="52" width="2" height="2"></rect>
            <rect id="Rectangle-path" x="50" y="56" width="2" height="2"></rect>
            <rect id="Rectangle-path" x="48" y="52" width="2" height="2"></rect>
            <rect id="Rectangle-path" x="14" y="56" width="2" height="2"></rect>
            <rect id="Rectangle-path" x="12" y="52" width="2" height="2"></rect>
            <rect id="Rectangle-path" x="18" y="56" width="2" height="2"></rect>
            <rect id="Rectangle-path" x="16" y="52" width="2" height="2"></rect>
            <rect id="Rectangle-path" x="22" y="56" width="2" height="2"></rect>
            <rect id="Rectangle-path" x="20" y="52" width="2" height="2"></rect>
            <rect id="Rectangle-path" x="26" y="56" width="2" height="2"></rect>
            <rect id="Rectangle-path" x="24" y="52" width="2" height="2"></rect>
            <rect id="Rectangle-path" x="28" y="48" width="2" height="2"></rect>
            <rect id="Rectangle-path" x="32" y="48" width="2" height="2"></rect>
            <rect id="Rectangle-path" x="36" y="48" width="2" height="2"></rect>
            <rect id="Rectangle-path" x="40" y="48" width="2" height="2"></rect>
            <rect id="Rectangle-path" x="44" y="48" width="2" height="2"></rect>
            <rect id="Rectangle-path" x="48" y="48" width="2" height="2"></rect>
            <rect id="Rectangle-path" x="52" y="52" width="2" height="2"></rect>
            <rect id="Rectangle-path" x="52" y="48" width="2" height="2"></rect>
            <rect id="Rectangle-path" x="12" y="48" width="2" height="2"></rect>
            <rect id="Rectangle-path" x="16" y="48" width="2" height="2"></rect>
            <rect id="Rectangle-path" x="20" y="48" width="2" height="2"></rect>
            <rect id="Rectangle-path" x="24" y="48" width="2" height="2"></rect>
            <rect id="Rectangle-path" x="18" y="4" width="2" height="2"></rect>
            <rect id="Rectangle-path" x="22" y="4" width="20" height="2"></rect>
            <rect id="Rectangle-path" x="18" y="8" width="24" height="2"></rect>
            <rect id="Rectangle-path" x="18" y="12" width="30" height="2"></rect>
            <rect id="Rectangle-path" x="18" y="16" width="30" height="2"></rect>
            <rect id="Rectangle-path" x="18" y="20" width="30" height="2"></rect>
            <rect id="Rectangle-path" x="50" y="40" width="2" height="2"></rect>
            <rect id="Rectangle-path" x="50" y="36" width="2" height="2"></rect>
            <rect id="Rectangle-path" x="14" y="40" width="2" height="2"></rect>
            <rect id="Rectangle-path" x="14" y="36" width="2" height="2"></rect>
        </g>
    </g>
</svg>