<?xml version="1.0" standalone="no"?>
<!DOCTYPE svg PUBLIC "-//W3C//DTD SVG 20010904//EN"
 "http://www.w3.org/TR/2001/REC-SVG-20010904/DTD/svg10.dtd">
<svg version="1.0" xmlns="http://www.w3.org/2000/svg"
 width="1280.000000pt" height="1280.000000pt" viewBox="0 0 1280.000000 1280.000000"
 preserveAspectRatio="xMidYMid meet">
<metadata>
Created by potrace 1.14, written by Peter Selinger 2001-2017
</metadata>
<g transform="translate(0.000000,1280.000000) scale(0.100000,-0.100000)"
fill="#000000" stroke="none">
<path d="M2180 9346 c0 -8 829 -1659 836 -1666 5 -5 65 7 134 26 69 19 133 37
143 39 42 9 55 17 59 33 12 47 -3 255 -28 400 -17 96 -67 240 -125 359 -81
166 -168 285 -306 420 -181 177 -403 306 -644 372 -38 11 -69 18 -69 17z"/>
<path d="M6428 8975 c-2 -1 -59 -5 -128 -9 -69 -4 -134 -9 -145 -11 -11 -2
-36 -4 -55 -5 l-35 -1 44 -37 c135 -113 197 -195 294 -394 117 -238 189 -476
212 -694 4 -38 9 -78 11 -89 3 -11 4 -87 4 -170 0 -170 -11 -286 -41 -430 -6
-27 -13 -63 -16 -80 -11 -68 -106 -328 -157 -430 l-55 -110 -1 50 c-4 117 -23
360 -35 450 -2 17 -7 57 -10 90 -3 33 -8 71 -11 85 -2 14 -7 48 -10 75 -2 28
-7 61 -9 74 -2 13 -7 45 -11 70 -4 25 -8 55 -10 66 -7 38 -24 130 -29 158 -10
54 -54 254 -59 268 -3 8 -7 25 -10 39 -8 46 -64 234 -99 335 -93 264 -180 428
-314 592 -26 33 -40 35 -103 18 -8 -2 -31 -6 -50 -9 -155 -23 -603 -156 -845
-251 -140 -54 -385 -172 -385 -184 0 -5 7 -12 17 -15 40 -16 156 -101 215
-158 229 -225 454 -612 544 -938 28 -101 63 -260 69 -313 4 -28 10 -79 15
-112 8 -60 6 -463 -3 -500 -3 -11 -8 -42 -11 -69 -4 -28 -14 -82 -22 -120 -9
-39 -17 -81 -20 -92 -4 -22 -40 -144 -50 -174 -5 -12 -45 127 -79 273 -10 45
-89 315 -105 361 -9 28 -17 54 -18 59 -3 35 -194 557 -242 662 -17 36 -30 67
-30 70 0 2 -33 73 -74 157 -65 135 -91 185 -166 313 -88 153 -279 395 -311
395 -19 0 -384 -374 -464 -476 -44 -55 -90 -114 -103 -130 -13 -16 -35 -48
-50 -70 -21 -33 -35 -43 -64 -48 -69 -11 -222 -68 -319 -117 -121 -62 -243
-151 -339 -248 -122 -123 -125 -127 -124 -195 0 -51 -5 -70 -43 -142 -24 -46
-58 -117 -74 -157 -17 -39 -37 -85 -45 -102 -20 -45 -136 -329 -172 -420 -78
-200 -129 -360 -207 -644 -125 -454 -171 -585 -276 -792 -58 -114 -170 -301
-196 -327 -87 -88 -16 -235 151 -317 108 -52 127 -47 320 93 50 36 95 69 101
74 5 5 78 61 160 126 179 140 498 394 505 403 10 11 466 375 507 404 37 27 46
42 82 135 38 100 54 154 65 210 2 14 7 41 11 60 12 67 13 75 15 100 5 80 50
-185 53 -318 3 -103 -6 -254 -17 -289 -5 -16 11 -39 81 -114 203 -215 732
-749 880 -886 44 -41 52 -55 57 -93 9 -77 37 -294 41 -320 2 -14 7 -50 10 -80
3 -30 8 -62 11 -70 2 -10 -81 -101 -226 -249 -127 -128 -230 -234 -230 -235 0
0 209 -1 465 -1 256 0 465 0 465 1 0 1 -41 54 -90 119 l-90 118 46 51 c112
123 450 451 574 557 140 119 329 270 414 330 26 19 61 43 76 54 94 68 262 179
370 245 185 113 441 211 965 370 76 23 393 99 480 114 28 5 45 9 105 21 39 7
81 14 130 21 25 3 54 8 65 10 11 3 36 7 55 9 19 3 49 7 65 10 34 5 138 16 175
19 28 1 66 -50 132 -179 72 -141 91 -207 93 -325 8 -344 -159 -711 -432 -951
-110 -97 -513 -358 -703 -455 -41 -21 -97 -52 -125 -69 -27 -17 -69 -40 -92
-51 -23 -10 -43 -21 -43 -24 0 -3 283 -5 630 -5 413 0 630 3 630 10 0 6 -46
84 -102 174 -57 91 -104 168 -106 172 -2 4 67 55 154 114 86 58 177 123 203
143 26 20 62 48 81 62 160 120 465 403 584 544 22 27 50 58 61 70 87 92 299
383 385 531 29 50 63 106 74 125 35 56 141 278 189 395 52 125 129 365 143
442 3 14 11 53 19 87 29 126 28 136 -25 264 -185 448 -369 793 -643 1200
l-110 164 -28 -110 c-68 -273 -204 -520 -396 -718 -68 -71 -186 -174 -198
-174 -2 0 7 30 22 68 90 239 191 568 227 744 3 13 12 57 21 98 23 105 43 217
61 344 l15 109 -43 46 c-282 298 -556 507 -901 686 l-107 56 6 -53 c4 -29 8
-56 10 -59 6 -11 17 -185 17 -274 0 -86 -9 -209 -18 -271 -3 -16 -8 -45 -11
-64 -17 -107 -79 -318 -129 -433 -61 -145 -186 -354 -272 -457 -38 -46 -49
-58 -84 -96 -38 -42 -77 -76 -66 -58 7 13 72 304 82 369 3 22 12 78 20 125 20
121 34 232 50 403 19 204 24 594 11 797 -14 206 -15 223 -23 231 -17 17 -333
94 -467 113 -21 4 -41 8 -45 10 -3 2 -35 7 -71 10 -36 4 -74 9 -85 11 -11 2
-51 7 -90 11 -38 3 -86 8 -105 10 -37 5 -438 12 -442 9z m-3447 -3298 c39 -23
155 -121 120 -102 -8 5 -44 9 -80 10 l-66 2 0 -63 c0 -57 -3 -65 -30 -88 -43
-37 -89 -50 -158 -42 -66 7 -81 15 -103 58 -43 83 5 201 99 244 51 23 164 13
218 -19z"/>
<path d="M1180 8373 c0 -7 27 -34 180 -173 51 -47 105 -96 120 -110 125 -115
212 -195 232 -211 12 -11 67 -62 122 -112 54 -51 108 -100 118 -109 11 -9 60
-54 110 -100 50 -46 103 -94 118 -108 15 -14 70 -64 121 -111 52 -47 110 -100
130 -117 l35 -31 140 140 139 139 -34 67 c-38 73 -140 229 -186 283 -54 64
-189 194 -250 240 -203 154 -400 240 -685 301 -62 13 -410 24 -410 12z"/>
<path d="M10421 5608 c-5 -13 -39 -97 -76 -188 -37 -91 -87 -214 -111 -275
-25 -60 -49 -119 -54 -130 -5 -11 -18 -42 -29 -68 l-20 -48 63 -132 c259 -542
650 -1056 1101 -1446 201 -174 255 -212 305 -213 17 -1 33 2 37 5 3 4 -11 30
-31 59 -21 29 -77 108 -124 175 -304 428 -584 954 -783 1465 -82 211 -215 619
-233 714 -8 42 -27 104 -32 104 -2 0 -8 -10 -13 -22z"/>
<path d="M3566 4534 c1 -54 5 -243 9 -419 3 -176 8 -399 10 -495 l4 -175 -146
-120 c-80 -66 -157 -129 -171 -140 -13 -11 -67 -55 -119 -97 l-94 -78 475 0
476 0 -77 148 -76 149 139 187 c77 103 148 200 159 216 11 15 43 59 71 97 l51
69 -81 86 c-44 47 -135 143 -201 213 -66 71 -154 165 -196 209 -42 45 -113
119 -156 165 l-80 85 3 -100z"/>
<path d="M9841 4490 c-114 -204 -407 -487 -618 -597 -18 -9 -31 -19 -29 -22 2
-3 7 -37 10 -76 4 -38 9 -95 12 -125 3 -30 7 -71 9 -90 2 -19 7 -66 10 -105 3
-38 8 -77 11 -86 3 -11 -37 -55 -123 -135 -69 -65 -161 -152 -202 -191 l-76
-73 517 0 517 0 -81 133 c-44 72 -92 149 -105 171 l-25 38 65 132 c95 190 131
308 162 521 16 116 11 368 -10 465 -3 14 -7 36 -10 49 -7 35 -9 34 -34 -9z"/>
</g>
</svg>
